<svg xmlns="http://www.w3.org/2000/svg" width="1420" height="840" viewBox="0 0 1420 840">
<rect width="1420" height="840" fill="#f8fafc"/>
<rect x="38" y="36" width="1344" height="760" rx="18" fill="#ffffff" stroke="#d7dde7" stroke-width="2"/>
<text x="72" y="88" font-family="Segoe UI, Arial, sans-serif" font-size="34" font-weight="700" fill="#111827">Fitness, Fatigue e Form - ultimas 3 semanas</text>
<text x="72" y="120" font-family="Segoe UI, Arial, sans-serif" font-size="17" fill="#64748b">Serie diaria do modelo de carga ate 2026-10-09. Descanso aparece como carga zero no dia.</text>
<line x1="90" y1="632.6" x2="1310" y2="632.6" stroke="#dbe3ee" stroke-width="1"/>
<text x="48" y="637.6" font-family="Segoe UI, Arial, sans-serif" font-size="14" fill="#64748b">-30</text>
<line x1="90" y1="580.4" x2="1310" y2="580.4" stroke="#dbe3ee" stroke-width="1"/>
<text x="48" y="585.4" font-family="Segoe UI, Arial, sans-serif" font-size="14" fill="#64748b">-15</text>
<line x1="90" y1="528.1" x2="1310" y2="528.1" stroke="#9ca3af" stroke-width="2"/>
<text x="48" y="533.1" font-family="Segoe UI, Arial, sans-serif" font-size="14" fill="#64748b">0</text>
<line x1="90" y1="441.1" x2="1310" y2="441.1" stroke="#dbe3ee" stroke-width="1"/>
<text x="48" y="446.1" font-family="Segoe UI, Arial, sans-serif" font-size="14" fill="#64748b">25</text>
<line x1="90" y1="354.1" x2="1310" y2="354.1" stroke="#dbe3ee" stroke-width="1"/>
<text x="48" y="359.1" font-family="Segoe UI, Arial, sans-serif" font-size="14" fill="#64748b">50</text>
<line x1="90" y1="267.0" x2="1310" y2="267.0" stroke="#dbe3ee" stroke-width="1"/>
<text x="48" y="272.0" font-family="Segoe UI, Arial, sans-serif" font-size="14" fill="#64748b">75</text>
<line x1="90" y1="180.0" x2="1310" y2="180.0" stroke="#dbe3ee" stroke-width="1"/>
<text x="48" y="185.0" font-family="Segoe UI, Arial, sans-serif" font-size="14" fill="#64748b">100</text>
<polyline points="90.0,327.3 151.0,332.1 212.0,333.9 273.0,329.4 334.0,331.1 395.0,333.2 456.0,326.6 517.0,331.4 578.0,336.0 639.0,330.4 700.0,334.9 761.0,322.0 822.0,324.1 883.0,326.6 944.0,331.4 1005.0,336.0 1066.0,333.5 1127.0,327.6 1188.0,332.1 1249.0,331.8 1310.0,336.3" fill="none" stroke="#2563eb" stroke-width="4" stroke-linecap="round" stroke-linejoin="round"/>
<polyline points="90.0,360.3 151.0,384.4 212.0,388.5 273.0,353.0 334.0,360.3 395.0,368.7 456.0,323.8 517.0,353.0 578.0,378.1 639.0,337.0 700.0,364.5 761.0,282.0 822.0,300.8 883.0,318.2 944.0,348.2 1005.0,373.9 1066.0,354.1 1127.0,314.7 1188.0,345.4 1249.0,340.1 1310.0,367.0" fill="none" stroke="#ea580c" stroke-width="4" stroke-linecap="round" stroke-linejoin="round"/>
<polyline points="90.0,495.1 151.0,475.9 212.0,473.5 273.0,504.5 334.0,498.9 395.0,492.6 456.0,530.9 517.0,506.6 578.0,486.4 639.0,521.2 700.0,498.6 761.0,568.2 822.0,551.5 883.0,536.5 944.0,511.1 1005.0,490.2 1066.0,507.6 1127.0,540.7 1188.0,515.3 1249.0,519.8 1310.0,497.5" fill="none" stroke="#16a34a" stroke-width="4" stroke-linecap="round" stroke-linejoin="round"/>
<circle cx="90.0" cy="327.3" r="4" fill="#2563eb" stroke="#ffffff" stroke-width="2"/>
<circle cx="151.0" cy="332.1" r="4" fill="#2563eb" stroke="#ffffff" stroke-width="2"/>
<circle cx="212.0" cy="333.9" r="4" fill="#2563eb" stroke="#ffffff" stroke-width="2"/>
<circle cx="273.0" cy="329.4" r="4" fill="#2563eb" stroke="#ffffff" stroke-width="2"/>
<circle cx="334.0" cy="331.1" r="4" fill="#2563eb" stroke="#ffffff" stroke-width="2"/>
<circle cx="395.0" cy="333.2" r="4" fill="#2563eb" stroke="#ffffff" stroke-width="2"/>
<circle cx="456.0" cy="326.6" r="4" fill="#2563eb" stroke="#ffffff" stroke-width="2"/>
<circle cx="517.0" cy="331.4" r="4" fill="#2563eb" stroke="#ffffff" stroke-width="2"/>
<circle cx="578.0" cy="336.0" r="4" fill="#2563eb" stroke="#ffffff" stroke-width="2"/>
<circle cx="639.0" cy="330.4" r="4" fill="#2563eb" stroke="#ffffff" stroke-width="2"/>
<circle cx="700.0" cy="334.9" r="4" fill="#2563eb" stroke="#ffffff" stroke-width="2"/>
<circle cx="761.0" cy="322.0" r="4" fill="#2563eb" stroke="#ffffff" stroke-width="2"/>
<circle cx="822.0" cy="324.1" r="4" fill="#2563eb" stroke="#ffffff" stroke-width="2"/>
<circle cx="883.0" cy="326.6" r="4" fill="#2563eb" stroke="#ffffff" stroke-width="2"/>
<circle cx="944.0" cy="331.4" r="4" fill="#2563eb" stroke="#ffffff" stroke-width="2"/>
<circle cx="1005.0" cy="336.0" r="4" fill="#2563eb" stroke="#ffffff" stroke-width="2"/>
<circle cx="1066.0" cy="333.5" r="4" fill="#2563eb" stroke="#ffffff" stroke-width="2"/>
<circle cx="1127.0" cy="327.6" r="4" fill="#2563eb" stroke="#ffffff" stroke-width="2"/>
<circle cx="1188.0" cy="332.1" r="4" fill="#2563eb" stroke="#ffffff" stroke-width="2"/>
<circle cx="1249.0" cy="331.8" r="4" fill="#2563eb" stroke="#ffffff" stroke-width="2"/>
<circle cx="1310.0" cy="336.3" r="4" fill="#2563eb" stroke="#ffffff" stroke-width="2"/>
<circle cx="90.0" cy="360.3" r="4" fill="#ea580c" stroke="#ffffff" stroke-width="2"/>
<circle cx="151.0" cy="384.4" r="4" fill="#ea580c" stroke="#ffffff" stroke-width="2"/>
<circle cx="212.0" cy="388.5" r="4" fill="#ea580c" stroke="#ffffff" stroke-width="2"/>
<circle cx="273.0" cy="353.0" r="4" fill="#ea580c" stroke="#ffffff" stroke-width="2"/>
<circle cx="334.0" cy="360.3" r="4" fill="#ea580c" stroke="#ffffff" stroke-width="2"/>
<circle cx="395.0" cy="368.7" r="4" fill="#ea580c" stroke="#ffffff" stroke-width="2"/>
<circle cx="456.0" cy="323.8" r="4" fill="#ea580c" stroke="#ffffff" stroke-width="2"/>
<circle cx="517.0" cy="353.0" r="4" fill="#ea580c" stroke="#ffffff" stroke-width="2"/>
<circle cx="578.0" cy="378.1" r="4" fill="#ea580c" stroke="#ffffff" stroke-width="2"/>
<circle cx="639.0" cy="337.0" r="4" fill="#ea580c" stroke="#ffffff" stroke-width="2"/>
<circle cx="700.0" cy="364.5" r="4" fill="#ea580c" stroke="#ffffff" stroke-width="2"/>
<circle cx="761.0" cy="282.0" r="4" fill="#ea580c" stroke="#ffffff" stroke-width="2"/>
<circle cx="822.0" cy="300.8" r="4" fill="#ea580c" stroke="#ffffff" stroke-width="2"/>
<circle cx="883.0" cy="318.2" r="4" fill="#ea580c" stroke="#ffffff" stroke-width="2"/>
<circle cx="944.0" cy="348.2" r="4" fill="#ea580c" stroke="#ffffff" stroke-width="2"/>
<circle cx="1005.0" cy="373.9" r="4" fill="#ea580c" stroke="#ffffff" stroke-width="2"/>
<circle cx="1066.0" cy="354.1" r="4" fill="#ea580c" stroke="#ffffff" stroke-width="2"/>
<circle cx="1127.0" cy="314.7" r="4" fill="#ea580c" stroke="#ffffff" stroke-width="2"/>
<circle cx="1188.0" cy="345.4" r="4" fill="#ea580c" stroke="#ffffff" stroke-width="2"/>
<circle cx="1249.0" cy="340.1" r="4" fill="#ea580c" stroke="#ffffff" stroke-width="2"/>
<circle cx="1310.0" cy="367.0" r="4" fill="#ea580c" stroke="#ffffff" stroke-width="2"/>
<circle cx="90.0" cy="495.1" r="4" fill="#16a34a" stroke="#ffffff" stroke-width="2"/>
<circle cx="151.0" cy="475.9" r="4" fill="#16a34a" stroke="#ffffff" stroke-width="2"/>
<circle cx="212.0" cy="473.5" r="4" fill="#16a34a" stroke="#ffffff" stroke-width="2"/>
<circle cx="273.0" cy="504.5" r="4" fill="#16a34a" stroke="#ffffff" stroke-width="2"/>
<circle cx="334.0" cy="498.9" r="4" fill="#16a34a" stroke="#ffffff" stroke-width="2"/>
<circle cx="395.0" cy="492.6" r="4" fill="#16a34a" stroke="#ffffff" stroke-width="2"/>
<circle cx="456.0" cy="530.9" r="4" fill="#16a34a" stroke="#ffffff" stroke-width="2"/>
<circle cx="517.0" cy="506.6" r="4" fill="#16a34a" stroke="#ffffff" stroke-width="2"/>
<circle cx="578.0" cy="486.4" r="4" fill="#16a34a" stroke="#ffffff" stroke-width="2"/>
<circle cx="639.0" cy="521.2" r="4" fill="#16a34a" stroke="#ffffff" stroke-width="2"/>
<circle cx="700.0" cy="498.6" r="4" fill="#16a34a" stroke="#ffffff" stroke-width="2"/>
<circle cx="761.0" cy="568.2" r="4" fill="#16a34a" stroke="#ffffff" stroke-width="2"/>
<circle cx="822.0" cy="551.5" r="4" fill="#16a34a" stroke="#ffffff" stroke-width="2"/>
<circle cx="883.0" cy="536.5" r="4" fill="#16a34a" stroke="#ffffff" stroke-width="2"/>
<circle cx="944.0" cy="511.1" r="4" fill="#16a34a" stroke="#ffffff" stroke-width="2"/>
<circle cx="1005.0" cy="490.2" r="4" fill="#16a34a" stroke="#ffffff" stroke-width="2"/>
<circle cx="1066.0" cy="507.6" r="4" fill="#16a34a" stroke="#ffffff" stroke-width="2"/>
<circle cx="1127.0" cy="540.7" r="4" fill="#16a34a" stroke="#ffffff" stroke-width="2"/>
<circle cx="1188.0" cy="515.3" r="4" fill="#16a34a" stroke="#ffffff" stroke-width="2"/>
<circle cx="1249.0" cy="519.8" r="4" fill="#16a34a" stroke="#ffffff" stroke-width="2"/>
<circle cx="1310.0" cy="497.5" r="4" fill="#16a34a" stroke="#ffffff" stroke-width="2"/>
<text x="90.0" y="317.3" text-anchor="start" font-family="Segoe UI, Arial, sans-serif" font-size="12" font-weight="700" fill="#2563eb">57.7</text>
<text x="151.0" y="322.1" text-anchor="middle" font-family="Segoe UI, Arial, sans-serif" font-size="12" font-weight="700" fill="#2563eb">56.3</text>
<text x="212.0" y="323.9" text-anchor="middle" font-family="Segoe UI, Arial, sans-serif" font-size="12" font-weight="700" fill="#2563eb">55.8</text>
<text x="273.0" y="319.4" text-anchor="middle" font-family="Segoe UI, Arial, sans-serif" font-size="12" font-weight="700" fill="#2563eb">57.1</text>
<text x="334.0" y="321.1" text-anchor="middle" font-family="Segoe UI, Arial, sans-serif" font-size="12" font-weight="700" fill="#2563eb">56.6</text>
<text x="395.0" y="323.2" text-anchor="middle" font-family="Segoe UI, Arial, sans-serif" font-size="12" font-weight="700" fill="#2563eb">56.0</text>
<text x="456.0" y="316.6" text-anchor="middle" font-family="Segoe UI, Arial, sans-serif" font-size="12" font-weight="700" fill="#2563eb">57.9</text>
<text x="517.0" y="321.4" text-anchor="middle" font-family="Segoe UI, Arial, sans-serif" font-size="12" font-weight="700" fill="#2563eb">56.5</text>
<text x="578.0" y="326.0" text-anchor="middle" font-family="Segoe UI, Arial, sans-serif" font-size="12" font-weight="700" fill="#2563eb">55.2</text>
<text x="639.0" y="320.4" text-anchor="middle" font-family="Segoe UI, Arial, sans-serif" font-size="12" font-weight="700" fill="#2563eb">56.8</text>
<text x="700.0" y="324.9" text-anchor="middle" font-family="Segoe UI, Arial, sans-serif" font-size="12" font-weight="700" fill="#2563eb">55.5</text>
<text x="761.0" y="312.0" text-anchor="middle" font-family="Segoe UI, Arial, sans-serif" font-size="12" font-weight="700" fill="#2563eb">59.2</text>
<text x="822.0" y="314.1" text-anchor="middle" font-family="Segoe UI, Arial, sans-serif" font-size="12" font-weight="700" fill="#2563eb">58.6</text>
<text x="883.0" y="316.6" text-anchor="middle" font-family="Segoe UI, Arial, sans-serif" font-size="12" font-weight="700" fill="#2563eb">57.9</text>
<text x="944.0" y="321.4" text-anchor="middle" font-family="Segoe UI, Arial, sans-serif" font-size="12" font-weight="700" fill="#2563eb">56.5</text>
<text x="1005.0" y="326.0" text-anchor="middle" font-family="Segoe UI, Arial, sans-serif" font-size="12" font-weight="700" fill="#2563eb">55.2</text>
<text x="1066.0" y="323.5" text-anchor="middle" font-family="Segoe UI, Arial, sans-serif" font-size="12" font-weight="700" fill="#2563eb">55.9</text>
<text x="1127.0" y="317.6" text-anchor="middle" font-family="Segoe UI, Arial, sans-serif" font-size="12" font-weight="700" fill="#2563eb">57.6</text>
<text x="1188.0" y="322.1" text-anchor="middle" font-family="Segoe UI, Arial, sans-serif" font-size="12" font-weight="700" fill="#2563eb">56.3</text>
<text x="1249.0" y="321.8" text-anchor="middle" font-family="Segoe UI, Arial, sans-serif" font-size="12" font-weight="700" fill="#2563eb">56.4</text>
<text x="1310.0" y="326.3" text-anchor="end" font-family="Segoe UI, Arial, sans-serif" font-size="12" font-weight="700" fill="#2563eb">55.1</text>
<text x="90.0" y="380.3" text-anchor="start" font-family="Segoe UI, Arial, sans-serif" font-size="12" font-weight="700" fill="#ea580c">48.2</text>
<text x="151.0" y="404.4" text-anchor="middle" font-family="Segoe UI, Arial, sans-serif" font-size="12" font-weight="700" fill="#ea580c">41.3</text>
<text x="212.0" y="408.5" text-anchor="middle" font-family="Segoe UI, Arial, sans-serif" font-size="12" font-weight="700" fill="#ea580c">40.1</text>
<text x="273.0" y="373.0" text-anchor="middle" font-family="Segoe UI, Arial, sans-serif" font-size="12" font-weight="700" fill="#ea580c">50.3</text>
<text x="334.0" y="380.3" text-anchor="middle" font-family="Segoe UI, Arial, sans-serif" font-size="12" font-weight="700" fill="#ea580c">48.2</text>
<text x="395.0" y="388.7" text-anchor="middle" font-family="Segoe UI, Arial, sans-serif" font-size="12" font-weight="700" fill="#ea580c">45.8</text>
<text x="456.0" y="343.8" text-anchor="middle" font-family="Segoe UI, Arial, sans-serif" font-size="12" font-weight="700" fill="#ea580c">58.7</text>
<text x="517.0" y="373.0" text-anchor="middle" font-family="Segoe UI, Arial, sans-serif" font-size="12" font-weight="700" fill="#ea580c">50.3</text>
<text x="578.0" y="398.1" text-anchor="middle" font-family="Segoe UI, Arial, sans-serif" font-size="12" font-weight="700" fill="#ea580c">43.1</text>
<text x="639.0" y="357.0" text-anchor="middle" font-family="Segoe UI, Arial, sans-serif" font-size="12" font-weight="700" fill="#ea580c">54.9</text>
<text x="700.0" y="384.5" text-anchor="middle" font-family="Segoe UI, Arial, sans-serif" font-size="12" font-weight="700" fill="#ea580c">47.0</text>
<text x="761.0" y="302.0" text-anchor="middle" font-family="Segoe UI, Arial, sans-serif" font-size="12" font-weight="700" fill="#ea580c">70.7</text>
<text x="822.0" y="320.8" text-anchor="middle" font-family="Segoe UI, Arial, sans-serif" font-size="12" font-weight="700" fill="#ea580c">65.3</text>
<text x="883.0" y="338.2" text-anchor="middle" font-family="Segoe UI, Arial, sans-serif" font-size="12" font-weight="700" fill="#ea580c">60.3</text>
<text x="944.0" y="368.2" text-anchor="middle" font-family="Segoe UI, Arial, sans-serif" font-size="12" font-weight="700" fill="#ea580c">51.7</text>
<text x="1005.0" y="393.9" text-anchor="middle" font-family="Segoe UI, Arial, sans-serif" font-size="12" font-weight="700" fill="#ea580c">44.3</text>
<text x="1066.0" y="374.1" text-anchor="middle" font-family="Segoe UI, Arial, sans-serif" font-size="12" font-weight="700" fill="#ea580c">50.0</text>
<text x="1127.0" y="334.7" text-anchor="middle" font-family="Segoe UI, Arial, sans-serif" font-size="12" font-weight="700" fill="#ea580c">61.3</text>
<text x="1188.0" y="365.4" text-anchor="middle" font-family="Segoe UI, Arial, sans-serif" font-size="12" font-weight="700" fill="#ea580c">52.5</text>
<text x="1249.0" y="360.1" text-anchor="middle" font-family="Segoe UI, Arial, sans-serif" font-size="12" font-weight="700" fill="#ea580c">54.0</text>
<text x="1310.0" y="387.0" text-anchor="end" font-family="Segoe UI, Arial, sans-serif" font-size="12" font-weight="700" fill="#ea580c">46.3</text>
<text x="90.0" y="481.1" text-anchor="start" font-family="Segoe UI, Arial, sans-serif" font-size="12" font-weight="700" fill="#16a34a">9.5</text>
<text x="151.0" y="461.9" text-anchor="middle" font-family="Segoe UI, Arial, sans-serif" font-size="12" font-weight="700" fill="#16a34a">15.0</text>
<text x="212.0" y="459.5" text-anchor="middle" font-family="Segoe UI, Arial, sans-serif" font-size="12" font-weight="700" fill="#16a34a">15.7</text>
<text x="273.0" y="490.5" text-anchor="middle" font-family="Segoe UI, Arial, sans-serif" font-size="12" font-weight="700" fill="#16a34a">6.8</text>
<text x="334.0" y="484.9" text-anchor="middle" font-family="Segoe UI, Arial, sans-serif" font-size="12" font-weight="700" fill="#16a34a">8.4</text>
<text x="395.0" y="478.6" text-anchor="middle" font-family="Segoe UI, Arial, sans-serif" font-size="12" font-weight="700" fill="#16a34a">10.2</text>
<text x="456.0" y="516.9" text-anchor="middle" font-family="Segoe UI, Arial, sans-serif" font-size="12" font-weight="700" fill="#16a34a">-0.8</text>
<text x="517.0" y="492.6" text-anchor="middle" font-family="Segoe UI, Arial, sans-serif" font-size="12" font-weight="700" fill="#16a34a">6.2</text>
<text x="578.0" y="472.4" text-anchor="middle" font-family="Segoe UI, Arial, sans-serif" font-size="12" font-weight="700" fill="#16a34a">12.0</text>
<text x="639.0" y="507.2" text-anchor="middle" font-family="Segoe UI, Arial, sans-serif" font-size="12" font-weight="700" fill="#16a34a">2.0</text>
<text x="700.0" y="484.6" text-anchor="middle" font-family="Segoe UI, Arial, sans-serif" font-size="12" font-weight="700" fill="#16a34a">8.5</text>
<text x="761.0" y="554.2" text-anchor="middle" font-family="Segoe UI, Arial, sans-serif" font-size="12" font-weight="700" fill="#16a34a">-11.5</text>
<text x="822.0" y="537.5" text-anchor="middle" font-family="Segoe UI, Arial, sans-serif" font-size="12" font-weight="700" fill="#16a34a">-6.7</text>
<text x="883.0" y="522.5" text-anchor="middle" font-family="Segoe UI, Arial, sans-serif" font-size="12" font-weight="700" fill="#16a34a">-2.4</text>
<text x="944.0" y="497.1" text-anchor="middle" font-family="Segoe UI, Arial, sans-serif" font-size="12" font-weight="700" fill="#16a34a">4.9</text>
<text x="1005.0" y="476.2" text-anchor="middle" font-family="Segoe UI, Arial, sans-serif" font-size="12" font-weight="700" fill="#16a34a">10.9</text>
<text x="1066.0" y="493.6" text-anchor="middle" font-family="Segoe UI, Arial, sans-serif" font-size="12" font-weight="700" fill="#16a34a">5.9</text>
<text x="1127.0" y="526.7" text-anchor="middle" font-family="Segoe UI, Arial, sans-serif" font-size="12" font-weight="700" fill="#16a34a">-3.6</text>
<text x="1188.0" y="501.3" text-anchor="middle" font-family="Segoe UI, Arial, sans-serif" font-size="12" font-weight="700" fill="#16a34a">3.7</text>
<text x="1249.0" y="505.8" text-anchor="middle" font-family="Segoe UI, Arial, sans-serif" font-size="12" font-weight="700" fill="#16a34a">2.4</text>
<text x="1310.0" y="483.5" text-anchor="end" font-family="Segoe UI, Arial, sans-serif" font-size="12" font-weight="700" fill="#16a34a">8.8</text>
<text x="90.0" y="690" transform="rotate(45 90.0,690)" font-family="Segoe UI, Arial, sans-serif" font-size="13" fill="#64748b">09-19</text>
<text x="212.0" y="690" transform="rotate(45 212.0,690)" font-family="Segoe UI, Arial, sans-serif" font-size="13" fill="#64748b">09-21</text>
<text x="334.0" y="690" transform="rotate(45 334.0,690)" font-family="Segoe UI, Arial, sans-serif" font-size="13" fill="#64748b">09-23</text>
<text x="456.0" y="690" transform="rotate(45 456.0,690)" font-family="Segoe UI, Arial, sans-serif" font-size="13" fill="#64748b">09-25</text>
<text x="578.0" y="690" transform="rotate(45 578.0,690)" font-family="Segoe UI, Arial, sans-serif" font-size="13" fill="#64748b">09-27</text>
<text x="700.0" y="690" transform="rotate(45 700.0,690)" font-family="Segoe UI, Arial, sans-serif" font-size="13" fill="#64748b">09-29</text>
<text x="822.0" y="690" transform="rotate(45 822.0,690)" font-family="Segoe UI, Arial, sans-serif" font-size="13" fill="#64748b">10-01</text>
<text x="944.0" y="690" transform="rotate(45 944.0,690)" font-family="Segoe UI, Arial, sans-serif" font-size="13" fill="#64748b">10-03</text>
<text x="1066.0" y="690" transform="rotate(45 1066.0,690)" font-family="Segoe UI, Arial, sans-serif" font-size="13" fill="#64748b">10-05</text>
<text x="1188.0" y="690" transform="rotate(45 1188.0,690)" font-family="Segoe UI, Arial, sans-serif" font-size="13" fill="#64748b">10-07</text>
<text x="1310.0" y="690" transform="rotate(45 1310.0,690)" font-family="Segoe UI, Arial, sans-serif" font-size="13" fill="#64748b">10-09</text>
<rect x="78" y="720" width="210" height="50" rx="10" fill="#f8fafc" stroke="#e2e8f0"/>
<text x="96" y="752" font-family="Segoe UI, Arial, sans-serif" font-size="18" fill="#64748b">Fitness</text>
<text x="206" y="753" font-family="Segoe UI, Arial, sans-serif" font-size="24" font-weight="700" fill="#2563eb">55.1</text>
<rect x="328" y="720" width="210" height="50" rx="10" fill="#f8fafc" stroke="#e2e8f0"/>
<text x="346" y="752" font-family="Segoe UI, Arial, sans-serif" font-size="18" fill="#64748b">Fatigue</text>
<text x="456" y="753" font-family="Segoe UI, Arial, sans-serif" font-size="24" font-weight="700" fill="#ea580c">46.3</text>
<rect x="578" y="720" width="210" height="50" rx="10" fill="#f8fafc" stroke="#e2e8f0"/>
<text x="596" y="752" font-family="Segoe UI, Arial, sans-serif" font-size="18" fill="#64748b">Form</text>
<text x="706" y="753" font-family="Segoe UI, Arial, sans-serif" font-size="24" font-weight="700" fill="#16a34a">8.8</text>
<circle cx="980" cy="744" r="7" fill="#2563eb"/><text x="996" y="750" font-family="Segoe UI, Arial, sans-serif" font-size="16" fill="#64748b">Fitness</text>
<circle cx="1085" cy="744" r="7" fill="#ea580c"/><text x="1101" y="750" font-family="Segoe UI, Arial, sans-serif" font-size="16" fill="#64748b">Fatigue</text>
<circle cx="1195" cy="744" r="7" fill="#16a34a"/><text x="1211" y="750" font-family="Segoe UI, Arial, sans-serif" font-size="16" fill="#64748b">Form</text>
</svg>